<svg xmlns="http://www.w3.org/2000/svg" viewBox="0 0 800 193.4"><path d="M270.7 120.8l-5.3-12.2h-23.7l-5.3 12.2h-13.5l24.5-56.7h12.2l24.5 56.7h-13.4zM253.6 81l-7.1 16.5h14.2L253.6 81zm61.2-4.5c5.1 0 9.6 2.1 13.6 6.4 4 4.2 6 9.6 6 16s-2 11.8-6 16.1c-4 4.3-8.6 6.5-13.9 6.5-5.3 0-9.6-2.1-12.8-6.4v21.5h-12.2V77.2h12.2v4.9c3.7-3.8 8.1-5.6 13.1-5.6zm-13.3 22.6c0 3.5 1 6.4 3 8.7 2 2.2 4.4 3.4 7.2 3.4s5.3-1.1 7.4-3.4c2.1-2.2 3.2-5.1 3.2-8.6s-1-6.5-3.1-8.8c-2.1-2.4-4.5-3.6-7.4-3.6-2.9 0-5.3 1.2-7.3 3.5s-3 5.2-3 8.8zm67.3-22.6c5.1 0 9.6 2.1 13.6 6.4 4 4.2 6 9.6 6 16s-2 11.8-6 16.1c-4 4.3-8.6 6.5-13.9 6.5-5.3 0-9.6-2.1-12.8-6.4v21.5h-12.2V77.2h12.2v4.9c3.6-3.8 8-5.6 13.1-5.6zm-13.3 22.6c0 3.5 1 6.4 3 8.7 2 2.2 4.4 3.4 7.2 3.4s5.3-1.1 7.4-3.4c2.1-2.2 3.2-5.1 3.2-8.6s-1-6.5-3.1-8.8c-2.1-2.4-4.5-3.6-7.4-3.6-2.9 0-5.3 1.2-7.3 3.5-2.1 2.3-3 5.2-3 8.8zm104.9 21.7l-5.3-12.2h-23.7l-5.3 12.2h-13.5l24.5-56.7h12.2l24.5 56.7h-13.4zM443.3 81l-7.1 16.5h14.2L443.3 81zm56.8 29.7c4.1 0 7.7-2 10.9-6.1l7.2 8.1c-5.6 5.8-11.7 8.8-18.2 8.8s-12.1-2.1-16.6-6.2-6.8-9.5-6.8-16.2c0-6.7 2.3-12.1 6.8-16.3 4.6-4.2 10-6.3 16.3-6.3 3.1 0 6.3.6 9.5 1.9 3.2 1.3 6 3.2 8.5 5.8l-6.3 8.3c-1.4-1.7-3.1-3-5.1-3.9-2-.9-4-1.4-6-1.4-3.2 0-5.9 1-8.2 3.1-2.3 2.1-3.4 5-3.4 8.7 0 3.7 1.1 6.6 3.4 8.6 2.3 2.1 4.9 3.1 8 3.1zm63.3 10.1H552v-5.3c-3.1 3.9-7 5.9-11.6 5.9s-8.5-1.3-11.6-4c-3.1-2.7-4.7-6.2-4.7-10.7s1.6-7.8 4.9-10c3.2-2.2 7.7-3.3 13.3-3.3h9.1v-.2c0-4.6-2.5-7-7.4-7-2.1 0-4.3.4-6.7 1.3-2.4.8-4.3 1.9-6 3.1l-5.4-7.9c5.7-4.2 12.3-6.2 19.6-6.2 5.3 0 9.6 1.3 13 4 3.3 2.6 5 6.8 5 12.6v27.7zm-12.2-16.6v-2.1h-7.6c-4.9 0-7.3 1.5-7.3 4.5 0 1.6.6 2.8 1.7 3.6 1.2.8 2.8 1.3 5 1.3s4.1-.7 5.7-2c1.7-1.3 2.5-3.1 2.5-5.3zm40.8 17.3c-5.2 0-9.8-2.2-13.8-6.6-4.1-4.4-6.1-9.8-6.1-16.3s2-11.8 5.9-15.9c3.9-4.1 8.6-6.2 13.9-6.2 5.3 0 9.6 1.9 13 5.6V60.7H617v60.1h-12.2V115c-3.4 4.3-7.7 6.5-12.8 6.5zm-7.7-22.4c0 3.5 1.1 6.4 3.2 8.6 2.1 2.2 4.6 3.4 7.4 3.4 2.8 0 5.2-1.1 7.2-3.4 2-2.2 3-5.1 3-8.7 0-3.5-1-6.5-3-8.8-2-2.4-4.4-3.5-7.3-3.5-2.9 0-5.3 1.2-7.4 3.6-2 2.3-3.1 5.3-3.1 8.8zm82 15.4c-4.9 4.6-10.7 7-17.3 7-6.6 0-12.1-2-16.4-6.1-4.3-4.1-6.5-9.5-6.5-16.4 0-6.9 2.2-12.3 6.6-16.4 4.4-4.1 9.6-6.1 15.6-6.1s11.1 1.8 15.3 5.4c4.2 3.6 6.3 8.6 6.3 14.9v6.5h-31.8c.4 2.4 1.6 4.3 3.7 5.8s4.5 2.3 7.1 2.3c4.3 0 7.8-1.4 10.5-4.3l6.9 7.4zm-11.7-25.9c-1.7-1.4-3.7-2.1-6.1-2.1-2.4 0-4.6.7-6.6 2.2-2 1.5-3.2 3.4-3.5 5.9h19.1c-.3-2.6-1.2-4.6-2.9-6zm64 8.7v23.5h-12.2V97c0-3.5-.5-6-1.6-7.6-1.1-1.6-2.8-2.4-5.1-2.4-2.4 0-4.4.9-6.2 2.6-1.8 1.8-2.7 4.3-2.7 7.7v23.5h-12.2V77.2h12.2v4.9c3.3-3.8 7.2-5.7 11.5-5.7 2.8 0 5.3.8 7.5 2.4 2.2 1.6 3.9 3.6 5.1 5.9 1.7-2.6 3.9-4.7 6.8-6.2 2.8-1.5 5.7-2.2 8.6-2.2 5.1 0 9.3 1.5 12.4 4.6 3.1 3.1 4.7 7.5 4.7 13.3v26.5H735V97c0-6.7-2.5-10.1-7.4-10.1-2.4 0-4.5.9-6.3 2.6-1.8 1.8-2.7 4.4-2.7 7.8zm47.2 40.7c-4.3 0-8.3-1.7-12.1-5.2l5.5-9c2.1 2 4.2 3 6.3 3 1.1 0 2.1-.6 2.9-1.7.8-1.1 1.2-2.3 1.2-3.5 0-1.2-5.6-16-16.9-44.4h13l10.6 27.2L787 77.2h13l-20.3 51.4c-1.2 3-3 5.3-5.6 6.9-2.4 1.7-5.2 2.5-8.3 2.5zM96.7 193.4C43.4 193.4 0 150 0 96.7S43.4 0 96.7 0s96.7 43.4 96.7 96.7-43.4 96.7-96.7 96.7zm0-182.6c-47.3 0-85.8 38.5-85.8 85.8s38.5 85.8 85.8 85.8 85.8-38.5 85.8-85.8c0-47.2-38.5-85.8-85.8-85.8z"></path><path d="M78 55.5c-3.9-6.4-11.3-10-20.7-10-8.4 0-15.7 2.8-20.9 8.2l-1.1 1.1 6.5 8.4 1.4-1.5c4.6-4.8 11-5.5 14.4-5.5 4.6 0 7.6 1.5 9.3 4.4 1.5 2.5 1.1 5.6 1.1 8.3v.4h-.7c-7 0-15.7 0-22.8 2.5-10.1 3.7-13.7 11.4-13.7 17.3 0 8.4 6.7 17.3 19.8 17.3 6.2 0 11.4-2 17.4-5.6v4.4h13V69.4c.1-4.9-.3-9.4-3-13.9zM52.5 96.2c-6.4 0-9.5-3.9-9.5-7.7 0-1.6.6-3.3 2-4.8 1.3-1.5 3.4-2.9 6.5-3.6 3.1-.7 7.6-.9 10.9-.9 1.2 0 5.8.1 5.8.1v3c-.1 9.5-9.2 13.9-15.7 13.9zm61.768-65.41l10.182 3.6-45.295 128.127-10.182-3.6zM132.1 69.3h-3.4l-25.6 73h11.5l6.7-21h19.3l7.6 21h11.9l-28-73zm-8.1 43l6.4-19.1 7.1 19.1H124z"></path></svg>